<svg width="320" height="123" viewBox="0 0 320 123" fill="none" xmlns="http://www.w3.org/2000/svg">
<rect x="18" y="17" width="61" height="106" fill="#EFB071"/>
<path d="M102.25 113.75C94.7188 113.75 89.2812 111.875 85.9375 108.125C82.625 104.375 80.9688 98.4062 80.9688 90.2188V82.1562H97.2812V92.4688C97.2812 94.375 97.5625 95.875 98.125 96.9688C98.7188 98.0312 99.7344 98.5625 101.172 98.5625C102.672 98.5625 103.703 98.125 104.266 97.25C104.859 96.375 105.156 94.9375 105.156 92.9375C105.156 90.4062 104.906 88.2969 104.406 86.6094C103.906 84.8906 103.031 83.2656 101.781 81.7344C100.562 80.1719 98.8594 78.3594 96.6719 76.2969L89.2656 69.2656C83.7344 64.0469 80.9688 58.0781 80.9688 51.3594C80.9688 44.3281 82.5938 38.9688 85.8438 35.2812C89.125 31.5937 93.8594 29.75 100.047 29.75C107.609 29.75 112.969 31.7656 116.125 35.7969C119.312 39.8281 120.906 45.9531 120.906 54.1719H104.125V48.5C104.125 47.375 103.797 46.5 103.141 45.875C102.516 45.25 101.656 44.9375 100.562 44.9375C99.25 44.9375 98.2812 45.3125 97.6562 46.0625C97.0625 46.7812 96.7656 47.7188 96.7656 48.875C96.7656 50.0312 97.0781 51.2812 97.7031 52.625C98.3281 53.9688 99.5625 55.5156 101.406 57.2656L110.922 66.4062C112.828 68.2188 114.578 70.1406 116.172 72.1719C117.766 74.1719 119.047 76.5156 120.016 79.2031C120.984 81.8594 121.469 85.1094 121.469 88.9531C121.469 96.7031 120.031 102.781 117.156 107.188C114.312 111.562 109.344 113.75 102.25 113.75ZM141.156 113.75C136.625 113.75 133.562 112.797 131.969 110.891C130.406 108.953 129.625 106 129.625 102.031V58.2031H124.891V45.4062H129.625V30.5H145.938V45.4062H150.672V58.2031H145.938V98.0938C145.938 99.25 146.125 100.062 146.5 100.531C146.875 101 147.594 101.234 148.656 101.234C149.406 101.234 150.078 101.172 150.672 101.047V112.484C150.297 112.609 149.125 112.844 147.156 113.188C145.188 113.562 143.188 113.75 141.156 113.75ZM169.609 113.75C165.859 113.75 162.984 112.969 160.984 111.406C159.016 109.844 157.672 107.672 156.953 104.891C156.234 102.078 155.875 98.7969 155.875 95.0469V42.6875H172.75V93.0781C172.75 95.8906 172.969 97.8594 173.406 98.9844C173.844 100.078 174.875 100.625 176.5 100.625C178.25 100.625 179.344 99.8438 179.781 98.2812C180.25 96.7188 180.484 94.7031 180.484 92.2344V42.6875H197.219V113H180.438V105.5C179.375 108.188 178.094 110.234 176.594 111.641C175.125 113.047 172.797 113.75 169.609 113.75ZM217.797 113.75C214.547 113.75 211.969 113.156 210.062 111.969C208.156 110.781 206.734 109.141 205.797 107.047C204.859 104.953 204.234 102.5 203.922 99.6875C203.641 96.875 203.5 93.8594 203.5 90.6406V60.0781C203.5 54.6719 204.453 50.2969 206.359 46.9531C208.297 43.6094 211.562 41.9375 216.156 41.9375C219.562 41.9375 222.172 42.6719 223.984 44.1406C225.828 45.5781 227.25 47.5938 228.25 50.1875V30.5H245.312V113H228.25V105.547C227.312 108.078 226.062 110.078 224.5 111.547C222.969 113.016 220.734 113.75 217.797 113.75ZM224.219 100.625C225.812 100.625 226.875 99.9844 227.406 98.7031C227.969 97.4219 228.25 95.125 228.25 91.8125V62.2344C228.25 60.5781 228 58.9531 227.5 57.3594C227.031 55.7344 225.969 54.9219 224.312 54.9219C222.5 54.9219 221.359 55.6875 220.891 57.2188C220.422 58.75 220.188 60.4219 220.188 62.2344V91.8125C220.188 97.6875 221.531 100.625 224.219 100.625ZM251.688 38.375V24.4062H268.469V38.375H251.688ZM251.688 113V42.6875H268.469V113H251.688ZM295.562 113.75C281.562 113.75 274.562 106.484 274.562 91.9531V63.7344C274.562 57.1094 276.422 51.8281 280.141 47.8906C283.859 43.9219 289 41.9375 295.562 41.9375C302.156 41.9375 307.312 43.9219 311.031 47.8906C314.75 51.8281 316.609 57.1094 316.609 63.7344V91.9531C316.609 106.484 309.594 113.75 295.562 113.75ZM295.562 100.812C296.969 100.812 297.969 100.312 298.562 99.3125C299.188 98.2812 299.5 96.9844 299.5 95.4219V61.0625C299.5 56.9688 298.188 54.9219 295.562 54.9219C292.938 54.9219 291.625 56.9688 291.625 61.0625V95.4219C291.625 96.9844 291.922 98.2812 292.516 99.3125C293.141 100.312 294.156 100.812 295.562 100.812Z" fill="#EFB071"/>
<path d="M75.0312 101.125H66.3125V117.438H57.7188L19.9688 107.031V89.9062H57.125V86.9688H66.3125V89.9062H75.0312V101.125ZM57.125 107.625V101.125H29.4062L57.125 107.625ZM75.5 70.5625C75.5 75.2083 74.1979 78.8021 71.5938 81.3438C68.9896 83.8646 65.2396 85.125 60.3438 85.125H35.5312C30.3646 85.125 26.4062 83.9271 23.6562 81.5312C20.8854 79.1146 19.5 75.4583 19.5 70.5625C19.5 65.6458 20.8854 61.9896 23.6562 59.5938C26.4062 57.1979 30.3646 56 35.5312 56H60.3438C65.2396 56 68.9896 57.2604 71.5938 59.7812C74.1979 62.3021 75.5 65.8958 75.5 70.5625ZM65.375 70.5625C65.375 69.7083 64.9896 69.0417 64.2188 68.5625C63.4479 68.0833 62.5833 67.8438 61.625 67.8438H34.4688C33.1771 67.8438 32.0521 67.9896 31.0938 68.2812C30.1146 68.5521 29.625 69.3125 29.625 70.5625C29.625 71.8125 30.1146 72.5833 31.0938 72.875C32.0521 73.1458 33.1771 73.2812 34.4688 73.2812H61.625C62.5833 73.2812 63.4479 73.0417 64.2188 72.5625C64.9896 72.0625 65.375 71.3958 65.375 70.5625ZM75.0312 37.875H66.3125V54.1875H57.7188L19.9688 43.7812V26.6562H57.125V23.7188H66.3125V26.6562H75.0312V37.875ZM57.125 44.375V37.875H29.4062L57.125 44.375Z" fill="white"/>
</svg>
